<?xml version="1.0" encoding="iso-8859-1"?>
<!-- Generator: Adobe Illustrator 19.0.0, SVG Export Plug-In . SVG Version: 6.00 Build 0)  -->
<svg version="1.1" id="Capa_1" xmlns="http://www.w3.org/2000/svg" xmlns:xlink="http://www.w3.org/1999/xlink" x="0px" y="0px"
	 viewBox="0 0 511.998 511.998" style="enable-background:new 0 0 511.998 511.998;" xml:space="preserve">
<path style="fill:#93603E;" d="M264.289,116.358c11.353-27.478,29.394-59.273,58.06-82.65c3.938-3.213,3.856-9.258-0.151-12.384
	L297.962,2.412c-5.535-4.319-13.616-2.651-16.977,3.513c-9.998,18.342-28.35,59.312-35.639,108.716
	C253.471,120.833,257.182,121.228,264.289,116.358z"/>
<path style="fill:#7F573C;" d="M301.941,5.925c0.052-0.096,0.116-0.181,0.171-0.275l-4.15-3.238
	c-5.535-4.319-13.616-2.651-16.977,3.513c-9.998,18.342-28.35,59.312-35.639,108.716c8.125,6.191,11.836,6.586,18.943,1.716
	c0.872-2.112,1.789-4.251,2.743-6.408C274.751,62.652,292.261,23.683,301.941,5.925z"/>
<path style="fill:#9AB748;" d="M438.704,307.558c0,9.012-17.299,16.9-18.322,25.593c-1.052,8.937,13.908,20.648,11.846,29.167
	c-2.114,8.736-20.79,12.28-23.89,20.489c-3.172,8.401,8.462,23.424,4.341,31.178c-4.211,7.924-23.168,6.641-28.281,13.789
	c-5.215,7.291,2.066,24.844-3.994,31.221c-6.166,6.489-24.028,0.053-30.97,5.484c-7.032,5.501-5.161,24.41-12.886,28.708
	c-7.769,4.323-22.782-7.27-31.148-4.284c-8.323,2.971-12.647,21.465-21.456,22.995c-8.643,1.501-18.934-14.425-27.945-14.425
	c-9.011,0-19.302,15.926-27.945,14.425c-8.809-1.53-13.134-20.024-21.457-22.995c-8.365-2.986-23.379,8.606-31.148,4.283
	c-7.725-4.298-5.854-23.207-12.886-28.708c-6.942-5.431-24.804,1.004-30.97-5.484c-6.06-6.378,1.221-23.93-3.994-31.221
	c-5.113-7.148-24.07-5.865-28.281-13.789c-4.121-7.755,7.514-22.776,4.342-31.177c-3.099-8.209-21.775-11.752-23.889-20.489
	c-2.062-8.519,12.898-20.23,11.846-29.167c-1.023-8.694-18.322-16.582-18.322-25.594s17.299-16.9,18.322-25.593
	c1.052-8.937-13.908-20.648-11.846-29.167c2.114-8.736,20.79-12.28,23.89-20.489c3.172-8.401-8.462-23.424-4.341-31.179
	c4.211-7.924,23.168-6.641,28.281-13.789c5.215-7.291-2.066-24.844,3.994-31.221c6.166-6.489,24.028-0.053,30.97-5.484
	c7.032-5.501,5.161-24.41,12.886-28.708c7.769-4.323,22.782,7.27,31.148,4.284c8.323-2.971,12.647-21.465,21.456-22.995
	c8.643-1.501,18.934,14.425,27.945,14.425c9.011,0,19.302-15.926,27.945-14.425c8.809,1.53,13.134,20.024,21.457,22.995
	c8.365,2.986,23.379-8.606,31.148-4.283c7.725,4.298,5.854,23.207,12.886,28.708c6.942,5.431,24.804-1.004,30.97,5.484
	c6.06,6.378-1.221,23.93,3.994,31.221c5.113,7.148,24.07,5.865,28.281,13.789c4.121,7.755-7.514,22.776-4.342,31.177
	c3.099,8.209,21.775,11.752,23.889,20.489c2.062,8.519-12.898,20.23-11.846,29.167C421.405,290.657,438.704,298.546,438.704,307.558
	z"/>
<path style="fill:#8CA532;" d="M191.864,464.479c-6.942-5.431-24.804,1.004-30.97-5.484c-6.06-6.378,1.221-23.93-3.994-31.221
	c-5.113-7.148-24.07-5.865-28.281-13.789c-4.121-7.755,7.514-22.776,4.342-31.177c-3.099-8.209-21.775-11.752-23.89-20.489
	c-2.062-8.519,12.898-20.23,11.846-29.167c-1.023-8.693-18.322-16.582-18.322-25.594s17.299-16.9,18.322-25.593
	c1.052-8.937-13.908-20.648-11.846-29.167c2.114-8.736,20.79-12.28,23.89-20.489c3.172-8.401-8.462-23.424-4.341-31.179
	c4.211-7.924,23.168-6.641,28.281-13.789c5.215-7.291-2.066-24.844,3.994-31.221c6.166-6.489,24.028-0.053,30.97-5.484
	c5.509-4.31,5.555-16.847,9.03-24.143c-8.376-1.298-19.228-8.024-25.445-4.565c-7.725,4.298-5.854,23.207-12.886,28.708
	c-6.942,5.43-24.804-1.005-30.97,5.484c-6.06,6.378,1.221,23.93-3.994,31.221c-5.113,7.148-24.071,5.866-28.281,13.789
	c-4.121,7.755,7.513,22.777,4.341,31.179c-3.099,8.209-21.775,11.753-23.89,20.489c-2.062,8.519,12.898,20.23,11.846,29.167
	c-1.023,8.693-18.322,16.581-18.322,25.593s17.299,16.901,18.322,25.594c1.052,8.937-13.908,20.648-11.846,29.167
	c2.114,8.736,20.79,12.28,23.89,20.489c3.172,8.401-8.463,23.423-4.342,31.177c4.21,7.923,23.168,6.641,28.281,13.789
	c5.215,7.291-2.066,24.843,3.994,31.221c6.166,6.489,24.028,0.054,30.97,5.484c7.032,5.501,5.161,24.41,12.886,28.708
	c6.217,3.459,17.069-3.266,25.445-4.564C197.418,481.327,197.373,468.789,191.864,464.479z"/>
<g>
	<path style="fill:#BAD362;" d="M307.717,440.378c-2.899,0-5.677-1.639-6.995-4.435c-1.819-3.86-0.164-8.464,3.696-10.283
		c3.122-1.472,6.547-2.447,9.86-3.39c2.929-0.834,9.025-2.569,9.699-3.937c0.687-1.658-1.327-7.934-2.409-11.306
		c-6.317-19.681-4.117-25.764,12.681-35.978c2.897-1.762,8.289-5.041,8.669-6.73c0.353-1.704-3.039-7.28-4.861-10.275
		c-3.715-6.106-7.925-13.028-7.127-20.336c0.784-7.186,6.326-12.798,11.216-17.75c2.641-2.673,7.059-7.147,7.059-9.022
		s-4.419-6.348-7.059-9.022c-4.89-4.952-10.433-10.564-11.216-17.75c-0.798-7.309,3.413-14.231,7.127-20.338
		c1.822-2.994,5.213-8.569,4.86-10.273c-0.379-1.689-5.771-4.968-8.668-6.729c-16.813-10.222-18.992-16.318-12.681-35.978
		c1.082-3.371,3.096-9.646,2.405-11.315c-0.909-1.846-10.688-4.015-15.72-5.771c-4.029-1.406-6.156-5.812-4.75-9.841
		s5.812-6.154,9.841-4.75c7.98,2.785,19.854,4.119,24.496,13.543c3.498,7.103,0.812,15.473-1.558,22.857
		c-1.237,3.855-3.107,9.681-2.422,11.639c0.575,1.644,5.484,4.629,8.417,6.412c6.516,3.962,13.901,8.452,15.718,16.551
		c1.74,7.753-2.763,15.156-6.736,21.687c-2.069,3.402-5.196,8.542-4.968,10.63c0.2,1.833,4.363,6.048,6.85,8.566
		c5.399,5.466,11.518,11.662,11.518,19.882c0,13.371-17.812,23.363-18.367,28.447c-0.621,5.686,14.601,19.409,11.704,32.318
		c-2.936,13.087-22.511,18.32-24.135,22.963c-0.686,1.958,1.184,7.784,2.422,11.64c2.37,7.385,5.057,15.754,1.558,22.858
		c-3.706,7.523-12.007,9.886-19.331,11.971c-2.84,0.809-5.523,1.573-7.503,2.505C309.941,440.14,308.82,440.378,307.717,440.378z"/>
	<path style="fill:#BAD362;" d="M200.993,439.638c-7.337-3.456-21.654-3.962-26.834-14.476c-5.831-11.839,5.865-29.114,3.98-34.497
		c-1.639-4.687-21.182-9.803-24.136-22.962c-2.894-12.902,12.319-26.676,11.704-32.319c-0.2-1.833-4.363-6.048-6.85-8.566
		c-5.399-5.466-11.518-11.662-11.518-19.882c0-13.371,17.813-23.363,18.368-28.447c0.622-5.699-14.605-19.392-11.704-32.318
		c2.931-13.064,22.523-18.357,24.135-22.963c1.867-5.334-9.789-22.701-3.98-34.495c4.642-9.424,16.515-10.758,24.496-13.543
		c4.03-1.406,8.435,0.721,9.841,4.75s-0.721,8.435-4.75,9.841c-5.034,1.757-14.81,3.923-15.724,5.781
		c-0.687,1.658,1.328,7.933,2.41,11.305c6.317,19.681,4.117,25.765-12.681,35.978c-2.897,1.761-8.289,5.04-8.668,6.729
		c-0.352,1.704,3.039,7.279,4.86,10.274c10.742,17.657,9.712,24.11-4.09,38.087c-2.64,2.673-7.059,7.147-7.059,9.022
		s4.419,6.348,7.059,9.022c13.802,13.977,14.831,20.428,4.09,38.086c-1.822,2.996-5.214,8.572-4.86,10.276
		c0.379,1.688,5.771,4.967,8.669,6.729c16.813,10.223,18.992,16.318,12.681,35.978c-1.082,3.371-3.096,9.647-2.405,11.316
		c1.084,2.2,13.127,4.287,19.554,7.316c3.86,1.819,5.515,6.423,3.696,10.283C209.457,439.804,204.851,441.458,200.993,439.638z"/>
</g>
<g>
</g>
<g>
</g>
<g>
</g>
<g>
</g>
<g>
</g>
<g>
</g>
<g>
</g>
<g>
</g>
<g>
</g>
<g>
</g>
<g>
</g>
<g>
</g>
<g>
</g>
<g>
</g>
<g>
</g>
</svg>
